<svg width="669" height="720" viewBox="0 0 669 720" fill="none" xmlns="http://www.w3.org/2000/svg">
<mask id="mask0_1730_1293" style="mask-type:alpha" maskUnits="userSpaceOnUse" x="0" y="0" width="669" height="720">
<path d="M0 0H669V720H0V0Z" fill="#1A1A1A"/>
</mask>
<g mask="url(#mask0_1730_1293)">
<path d="M673.16 202.721H504.439L673.16 34V202.721Z" fill="#D6FD70"/>
<path fill-rule="evenodd" clip-rule="evenodd" d="M360.709 215.943C413.209 215.943 462.287 230.619 504.055 256.091V230.662H673.16V752.669H504.055V727.212C462.285 752.686 413.212 767.36 360.709 767.36C208.441 767.36 85.0011 643.919 85 491.652C85.0038 339.386 208.443 215.943 360.709 215.943ZM375.4 362.997C304.35 363.004 246.749 420.601 246.745 491.652C246.746 562.705 304.348 620.299 375.4 620.307C446.094 620.307 503.468 563.305 504.055 492.75V490.526C503.446 419.989 446.081 362.997 375.4 362.997Z" fill="#D6FD70"/>
</g>
</svg>
