<svg width="1733" height="674" viewBox="0 0 1733 674" fill="none" xmlns="http://www.w3.org/2000/svg">
<mask id="mask0_1964_158" style="mask-type:alpha" maskUnits="userSpaceOnUse" x="0" y="0" width="1733" height="674">
<rect width="1733" height="674" fill="#1A1A1A"/>
</mask>
<g mask="url(#mask0_1964_158)">
<path d="M1554.5 452C1604.5 452 1664.5 412 1664.5 342C1664.5 272 1604.5 232 1554.5 232H1489.5H1409.5L1364.5 162H1554.5C1653.91 162 1734.5 242.589 1734.5 342C1734.5 441.411 1653.91 522 1554.5 522H-64L-14 602H1554.5C1698.09 602 1814.5 485.594 1814.5 342C1814.5 198.406 1698.09 82 1554.5 82H1224.5L1364.5 312H1509.5H1554.5C1571.07 312 1584.5 325.431 1584.5 342C1584.5 358.569 1571.07 372 1554.5 372H-149L-194 452H1554.5Z" fill="#2B2B2B"/>
<path d="M1224.5 82L1334.5 82L876.5 771H766.5L1224.5 82Z" fill="#464646"/>
<path d="M1547.04 734H1447.5L1274.5 452V302L1547.04 734Z" fill="#464646"/>
<path d="M1274.5 452L1062.75 771H962.955L1274.5 302V452Z" fill="#464646"/>
</g>
</svg>
