<svg width="239" height="31" viewBox="0 0 239 31" fill="none" xmlns="http://www.w3.org/2000/svg">
<path d="M109.375 11.3145C109.406 11.3131 109.437 11.3123 109.469 11.3123C110.66 11.3123 111.625 12.2776 111.625 13.4685V24.6248H107.312V15.6248H102.812L107.125 11.3123H109.375V11.3145Z" fill="white" fill-opacity="0.5"/>
<rect x="98.5" y="11.3123" width="4.3125" height="13.3125" fill="white" fill-opacity="0.5"/>
<path d="M63.7188 10.9373C65.058 10.9373 66.3096 11.3118 67.375 11.9617V11.3123H71.6875V24.6248H67.375V23.9744C66.3095 24.6244 65.0581 24.9998 63.7188 24.9998C59.8355 24.9998 56.6875 21.8518 56.6875 17.9685C56.6875 14.0853 59.8355 10.9373 63.7188 10.9373ZM64.0938 14.6873C62.2816 14.6873 60.8125 16.1563 60.8125 17.9685C60.8125 19.7807 62.2816 21.2498 64.0938 21.2498C65.9059 21.2498 67.375 19.7807 67.375 17.9685C67.375 16.1563 65.9059 14.6873 64.0938 14.6873Z" fill="white" fill-opacity="0.5"/>
<path d="M89.7812 10.9373C93.6645 10.9373 96.8125 14.0853 96.8125 17.9685C96.8125 21.8518 93.6645 24.9998 89.7812 24.9998C85.898 24.9998 82.75 21.8518 82.75 17.9685C82.75 14.0853 85.898 10.9373 89.7812 10.9373ZM89.7812 14.6873C87.9691 14.6873 86.5 16.1563 86.5 17.9685C86.5 19.7807 87.9691 21.2498 89.7812 21.2498C91.5934 21.2498 93.0625 19.7807 93.0625 17.9685C93.0625 16.1563 91.5934 14.6873 89.7812 14.6873Z" fill="white" fill-opacity="0.5"/>
<path d="M150.355 20.4486H154.435C153.787 21.9366 152.851 23.0886 151.723 23.8566C150.619 24.6486 149.299 25.0566 147.931 25.0566C144.115 25.0566 140.875 21.9606 140.875 18.0006C140.875 14.2806 143.803 10.8486 147.859 10.8486C151.915 10.8486 154.891 14.0646 154.891 18.1206C154.891 18.6486 154.843 18.8646 154.795 19.1766H144.811C145.051 20.7606 146.371 21.6966 147.931 21.6966C149.155 21.6966 149.803 21.1446 150.355 20.4486ZM144.859 16.4886H150.907C150.739 15.6966 149.947 14.2086 147.883 14.2086C145.819 14.2086 145.027 15.6966 144.859 16.4886Z" fill="white" fill-opacity="0.5"/>
<path d="M124 24.6248H119.688V19.9373L124 15.6248H119.688V11.3123H124V24.6248Z" fill="white" fill-opacity="0.5"/>
<path d="M47.0312 10.9373C48.3705 10.9373 49.6221 11.3118 50.6875 11.9617V11.3123H55V24.6248H50.6875V23.9744C49.622 24.6244 48.3706 24.9998 47.0312 24.9998C43.148 24.9998 40 21.8518 40 17.9685C40 14.0853 43.148 10.9373 47.0312 10.9373ZM47.4062 14.6873C45.5941 14.6873 44.125 16.1563 44.125 17.9685C44.125 19.7807 45.5941 21.2498 47.4062 21.2498C49.2184 21.2498 50.6875 19.7807 50.6875 17.9685C50.6875 16.1563 49.2184 14.6873 47.4062 14.6873Z" fill="white" fill-opacity="0.5"/>
<rect x="73.5625" y="11.3123" width="4.3125" height="13.3125" fill="white" fill-opacity="0.5"/>
<path d="M82 11.1248C79.7218 11.1248 77.875 12.9716 77.875 15.2498H82V11.1248Z" fill="white" fill-opacity="0.5"/>
<path d="M117.812 24.6248H113.5V11.3123L117.812 6.99976V24.6248Z" fill="white" fill-opacity="0.5"/>
<path d="M136.75 11.3145C136.781 11.3131 136.812 11.3123 136.844 11.3123C138.035 11.3123 139 12.2776 139 13.4685V24.6248H134.688V15.6248H130.188L134.5 11.3123H136.75V11.3145Z" fill="white" fill-opacity="0.5"/>
<rect x="125.875" y="11.3123" width="4.3125" height="13.3125" fill="white" fill-opacity="0.5"/>
<path d="M207.812 24.6248H203.5V19.9373L207.812 15.6248H203.5V11.3123H207.812V24.6248Z" fill="white" fill-opacity="0.5"/>
<path d="M223.807 11.3048V23.0168C223.807 25.0088 223.663 26.2808 223.015 27.4088C221.983 29.0888 219.559 30.5528 216.271 30.5528C211.639 30.5528 209.887 27.7688 209.623 25.8728H214.231C214.807 27.1928 216.295 27.1928 216.559 27.1928C217.063 27.1928 219.799 27.1448 219.799 23.5688V23.1608H219.751C219.343 23.9288 218.191 25.0568 216.103 25.0568C212.479 25.0568 209.383 22.3208 209.383 18.0488C209.383 13.4888 212.647 10.8728 216.103 10.8728C217.591 10.8728 219.055 11.4008 219.775 12.5528H219.823V11.3048H223.807ZM213.367 17.9048C213.367 20.0408 214.903 21.3368 216.559 21.3368C218.479 21.3368 219.823 19.9448 219.823 18.0248C219.823 15.8888 218.359 14.5928 216.583 14.5928C214.879 14.5928 213.367 15.9608 213.367 17.9048Z" fill="white" fill-opacity="0.5"/>
<path d="M201.639 15.0486H197.727C197.703 14.7606 197.655 14.0406 196.479 14.0406C195.639 14.0406 195.351 14.5686 195.351 14.9286C195.351 15.6486 196.335 16.0566 197.391 16.3686C199.647 16.9926 202.047 17.6646 202.047 20.5446C202.047 23.3526 199.575 25.0806 196.623 25.0806C194.607 25.0806 191.559 24.1686 191.199 20.6646H195.159C195.327 21.8886 196.503 21.8886 196.671 21.8886C197.343 21.8886 198.063 21.5046 198.063 20.8566C198.063 19.8246 197.079 19.7046 194.535 18.7206C192.807 18.1686 191.367 17.0406 191.367 15.2406C191.367 12.6006 193.767 10.8486 196.527 10.8486C198.279 10.8486 201.303 11.5446 201.639 15.0486Z" fill="white" fill-opacity="0.5"/>
<path d="M185.757 20.4486H189.837C189.189 21.9366 188.253 23.0886 187.125 23.8566C186.021 24.6486 184.701 25.0566 183.333 25.0566C179.517 25.0566 176.277 21.9606 176.277 18.0006C176.277 14.2806 179.205 10.8486 183.261 10.8486C187.317 10.8486 190.293 14.0646 190.293 18.1206C190.293 18.6486 190.245 18.8646 190.197 19.1766H180.213C180.453 20.7606 181.773 21.6966 183.333 21.6966C184.557 21.6966 185.205 21.1446 185.757 20.4486ZM180.261 16.4886H186.309C186.141 15.6966 185.349 14.2086 183.285 14.2086C181.221 14.2086 180.429 15.6966 180.261 16.4886Z" fill="white" fill-opacity="0.5"/>
<path fill-rule="evenodd" clip-rule="evenodd" d="M174.812 24.6248H170.5V23.9753C169.435 24.6251 168.183 24.9998 166.844 24.9998C162.96 24.9998 159.812 21.8518 159.812 17.9685C159.812 14.0853 162.96 10.9373 166.844 10.9373C168.183 10.9373 169.435 11.3117 170.5 11.9615V11.3123L174.812 6.99976V24.6248ZM167.219 14.6873C165.407 14.6873 163.938 16.1563 163.938 17.9685C163.938 19.7807 165.407 21.2498 167.219 21.2498C169.031 21.2498 170.5 19.7807 170.5 17.9685C170.5 16.1563 169.031 14.6873 167.219 14.6873Z" fill="white" fill-opacity="0.5"/>
<path d="M236.5 11.3145C236.531 11.3131 236.562 11.3123 236.594 11.3123C237.785 11.3123 238.75 12.2776 238.75 13.4685V24.6248H234.438V15.6248H229.938L234.25 11.3123H236.5V11.3145Z" fill="white" fill-opacity="0.5"/>
<rect x="225.625" y="11.3123" width="4.3125" height="13.3125" fill="white" fill-opacity="0.5"/>
<path d="M23.0001 6.59781H16.4023L23.0001 0V6.59781Z" fill="white"/>
<path fill-rule="evenodd" clip-rule="evenodd" d="M10.7815 7.11475C12.8345 7.11476 14.7537 7.68867 16.387 8.68473V7.69034H22.9998V28.1034H16.387V27.1079C14.7536 28.1041 12.8346 28.6779 10.7815 28.6779C4.82712 28.6779 4.28476e-05 23.8507 0 17.8963C0.000148716 11.942 4.82718 7.11475 10.7815 7.11475ZM11.356 12.8653C8.57762 12.8656 6.32516 15.1179 6.32501 17.8963C6.32505 20.6749 8.57755 22.9271 11.356 22.9274C14.1205 22.9274 16.3641 20.6983 16.387 17.9393V17.8523C16.3632 15.094 14.12 12.8653 11.356 12.8653Z" fill="white"/>
</svg>
