<svg width="247" height="40" viewBox="0 0 247 40" fill="none" xmlns="http://www.w3.org/2000/svg">
<path d="M117.125 19.7686C117.156 19.7672 117.187 19.7664 117.219 19.7664C118.41 19.7664 119.375 20.7317 119.375 21.9226V33.0789H115.062V24.0789H110.562L114.875 19.7664H117.125V19.7686Z" fill="white" fill-opacity="0.5"/>
<rect x="106.25" y="19.7664" width="4.3125" height="13.3125" fill="white" fill-opacity="0.5"/>
<path d="M71.4688 19.3914C72.808 19.3914 74.0596 19.7659 75.125 20.4158V19.7664H79.4375V33.0789H75.125V32.4285C74.0595 33.0785 72.8081 33.4539 71.4688 33.4539C67.5855 33.4539 64.4375 30.3059 64.4375 26.4226C64.4375 22.5394 67.5855 19.3914 71.4688 19.3914ZM71.8438 23.1414C70.0316 23.1414 68.5625 24.6104 68.5625 26.4226C68.5625 28.2348 70.0316 29.7039 71.8438 29.7039C73.6559 29.7039 75.125 28.2348 75.125 26.4226C75.125 24.6104 73.6559 23.1414 71.8438 23.1414Z" fill="white" fill-opacity="0.5"/>
<path d="M97.5312 19.3914C101.415 19.3914 104.562 22.5394 104.562 26.4226C104.562 30.3059 101.415 33.4539 97.5312 33.4539C93.648 33.4539 90.5 30.3059 90.5 26.4226C90.5 22.5394 93.648 19.3914 97.5312 19.3914ZM97.5312 23.1414C95.7191 23.1414 94.25 24.6104 94.25 26.4226C94.25 28.2348 95.7191 29.7039 97.5312 29.7039C99.3434 29.7039 100.812 28.2348 100.812 26.4226C100.812 24.6104 99.3434 23.1414 97.5312 23.1414Z" fill="white" fill-opacity="0.5"/>
<path d="M158.105 28.9027H162.185C161.537 30.3907 160.601 31.5427 159.473 32.3107C158.369 33.1027 157.049 33.5107 155.681 33.5107C151.865 33.5107 148.625 30.4147 148.625 26.4547C148.625 22.7347 151.553 19.3027 155.609 19.3027C159.665 19.3027 162.641 22.5187 162.641 26.5747C162.641 27.1027 162.593 27.3187 162.545 27.6307H152.561C152.801 29.2147 154.121 30.1507 155.681 30.1507C156.905 30.1507 157.553 29.5987 158.105 28.9027ZM152.609 24.9427H158.657C158.489 24.1507 157.697 22.6627 155.633 22.6627C153.569 22.6627 152.777 24.1507 152.609 24.9427Z" fill="white" fill-opacity="0.5"/>
<path d="M131.75 33.0789H127.438V28.3914L131.75 24.0789H127.438V19.7664H131.75V33.0789Z" fill="white" fill-opacity="0.5"/>
<path d="M54.7812 19.3914C56.1205 19.3914 57.3721 19.7659 58.4375 20.4158V19.7664H62.75V33.0789H58.4375V32.4285C57.372 33.0785 56.1206 33.4539 54.7812 33.4539C50.898 33.4539 47.75 30.3059 47.75 26.4226C47.75 22.5394 50.898 19.3914 54.7812 19.3914ZM55.1562 23.1414C53.3441 23.1414 51.875 24.6104 51.875 26.4226C51.875 28.2348 53.3441 29.7039 55.1562 29.7039C56.9684 29.7039 58.4375 28.2348 58.4375 26.4226C58.4375 24.6104 56.9684 23.1414 55.1562 23.1414Z" fill="white" fill-opacity="0.5"/>
<rect x="81.3125" y="19.7664" width="4.3125" height="13.3125" fill="white" fill-opacity="0.5"/>
<path d="M89.75 19.5789C87.4718 19.5789 85.625 21.4257 85.625 23.7039H89.75V19.5789Z" fill="white" fill-opacity="0.5"/>
<path d="M125.562 33.0789H121.25V19.7664L125.562 15.4539V33.0789Z" fill="white" fill-opacity="0.5"/>
<path d="M144.5 19.7686C144.531 19.7672 144.562 19.7664 144.594 19.7664C145.785 19.7664 146.75 20.7317 146.75 21.9226V33.0789H142.438V24.0789H137.938L142.25 19.7664H144.5V19.7686Z" fill="white" fill-opacity="0.5"/>
<rect x="133.625" y="19.7664" width="4.3125" height="13.3125" fill="white" fill-opacity="0.5"/>
<path d="M215.562 33.0789H211.25V28.3914L215.562 24.0789H211.25V19.7664H215.562V33.0789Z" fill="white" fill-opacity="0.5"/>
<path d="M231.557 19.7589V31.4709C231.557 33.4629 231.413 34.7349 230.765 35.8629C229.733 37.5429 227.309 39.0069 224.021 39.0069C219.389 39.0069 217.637 36.2229 217.373 34.3269H221.981C222.557 35.6469 224.045 35.6469 224.309 35.6469C224.813 35.6469 227.549 35.5989 227.549 32.0229V31.6149H227.501C227.093 32.3829 225.941 33.5109 223.853 33.5109C220.229 33.5109 217.133 30.7749 217.133 26.5029C217.133 21.9429 220.397 19.3269 223.853 19.3269C225.341 19.3269 226.805 19.8549 227.525 21.0069H227.573V19.7589H231.557ZM221.117 26.3589C221.117 28.4949 222.653 29.7909 224.309 29.7909C226.229 29.7909 227.573 28.3989 227.573 26.4789C227.573 24.3429 226.109 23.0469 224.333 23.0469C222.629 23.0469 221.117 24.4149 221.117 26.3589Z" fill="white" fill-opacity="0.5"/>
<path d="M209.389 23.5027H205.477C205.453 23.2147 205.405 22.4947 204.229 22.4947C203.389 22.4947 203.101 23.0227 203.101 23.3827C203.101 24.1027 204.085 24.5107 205.141 24.8227C207.397 25.4467 209.797 26.1187 209.797 28.9987C209.797 31.8067 207.325 33.5347 204.373 33.5347C202.357 33.5347 199.309 32.6227 198.949 29.1187H202.909C203.077 30.3427 204.253 30.3427 204.421 30.3427C205.093 30.3427 205.813 29.9587 205.813 29.3107C205.813 28.2787 204.829 28.1587 202.285 27.1747C200.557 26.6227 199.117 25.4947 199.117 23.6947C199.117 21.0547 201.517 19.3027 204.277 19.3027C206.029 19.3027 209.053 19.9987 209.389 23.5027Z" fill="white" fill-opacity="0.5"/>
<path d="M193.507 28.9027H197.587C196.939 30.3907 196.003 31.5427 194.875 32.3107C193.771 33.1027 192.451 33.5107 191.083 33.5107C187.267 33.5107 184.027 30.4147 184.027 26.4547C184.027 22.7347 186.955 19.3027 191.011 19.3027C195.067 19.3027 198.043 22.5187 198.043 26.5747C198.043 27.1027 197.995 27.3187 197.947 27.6307H187.963C188.203 29.2147 189.523 30.1507 191.083 30.1507C192.307 30.1507 192.955 29.5987 193.507 28.9027ZM188.011 24.9427H194.059C193.891 24.1507 193.099 22.6627 191.035 22.6627C188.971 22.6627 188.179 24.1507 188.011 24.9427Z" fill="white" fill-opacity="0.5"/>
<path fill-rule="evenodd" clip-rule="evenodd" d="M182.562 33.0789H178.25V32.4294C177.185 33.0792 175.933 33.4539 174.594 33.4539C170.71 33.4539 167.562 30.3059 167.562 26.4226C167.562 22.5394 170.71 19.3914 174.594 19.3914C175.933 19.3914 177.185 19.7658 178.25 20.4156V19.7664L182.562 15.4539V33.0789ZM174.969 23.1414C173.157 23.1414 171.688 24.6104 171.688 26.4226C171.688 28.2348 173.157 29.7039 174.969 29.7039C176.781 29.7039 178.25 28.2348 178.25 26.4226C178.25 24.6104 176.781 23.1414 174.969 23.1414Z" fill="white" fill-opacity="0.5"/>
<path d="M244.25 19.7686C244.281 19.7672 244.312 19.7664 244.344 19.7664C245.535 19.7664 246.5 20.7317 246.5 21.9226V33.0789H242.188V24.0789H237.688L242 19.7664H244.25V19.7686Z" fill="white" fill-opacity="0.5"/>
<rect x="233.375" y="19.7664" width="4.3125" height="13.3125" fill="white" fill-opacity="0.5"/>
<path d="M31.5001 9.0362H22.4639L31.5001 0V9.0362Z" fill="white"/>
<path fill-rule="evenodd" clip-rule="evenodd" d="M14.7662 9.74432C17.578 9.74435 20.2064 10.5304 22.4434 11.8945V10.5326H31.5002V38.4898H22.4434V37.1265C20.2063 38.4908 17.5781 39.2767 14.7662 39.2767C6.61114 39.2767 5.86834e-05 32.6655 0 24.5105C0.000203679 16.3556 6.61123 9.74432 14.7662 9.74432ZM15.553 17.6201C11.7478 17.6205 8.66283 20.7052 8.66262 24.5105C8.66268 28.3159 11.7477 31.4005 15.553 31.4009C19.3392 31.4009 22.4119 28.3481 22.4434 24.5693V24.4502C22.4108 20.6725 19.3385 17.6201 15.553 17.6201Z" fill="white"/>
</svg>
