<svg width="56" height="56" viewBox="0 0 56 56" fill="none" xmlns="http://www.w3.org/2000/svg">
<path d="M24 19C28.4183 19 32 22.5817 32 27C32 31.4183 28.4183 35 24 35C19.5817 35 16 31.4183 16 27C16 22.5817 19.5817 19 24 19ZM24 23C21.7909 23 20 24.7909 20 27C20 29.2091 21.7909 31 24 31C26.2091 31 28 29.2091 28 27C28 24.7909 26.2091 23 24 23Z" fill="#0F76B9"/>
<rect x="24" y="31" width="24" height="4" fill="#0F76B9"/>
<rect x="48" y="31" width="4" height="4" fill="#0F76B9"/>
<rect x="52" y="35" width="4" height="4" fill="#0F76B9"/>
<rect x="48" y="43" width="4" height="4" fill="#0F76B9"/>
<path d="M24 3C37.2548 3 48 13.7452 48 27C48 28.363 47.8843 29.6991 47.666 31H43.5996C43.862 29.7075 44 28.3699 44 27C44 15.9543 35.0457 7 24 7C12.9543 7 4 15.9543 4 27C4 38.0457 12.9543 47 24 47H48V51H24C10.7452 51 0 40.2548 0 27C0 13.7452 10.7452 3 24 3Z" fill="#0F76B9"/>
<path d="M24 11C32.8366 11 40 18.1634 40 27C40 28.3812 39.8251 29.7215 39.4961 31H35.3145C35.7569 29.7486 36 28.4029 36 27C36 20.3726 30.6274 15 24 15C17.3726 15 12 20.3726 12 27C12 33.6274 17.3726 39 24 39H48V43H24C15.1634 43 8 35.8366 8 27C8 18.1634 15.1634 11 24 11Z" fill="#0F76B9"/>
</svg>
