<svg width="38" height="38" viewBox="0 0 38 38" fill="none" xmlns="http://www.w3.org/2000/svg">
<rect width="38" height="38" fill="white"/>
<path d="M29 10H23L29 4V10Z" fill="#1A1A1A"/>
<path fill-rule="evenodd" clip-rule="evenodd" d="M17.8887 11.4702C19.7557 11.4702 21.501 11.9921 22.9863 12.8979V11.9937H29V30.5571H22.9863V29.6519C21.5009 30.5578 19.7558 31.0796 17.8887 31.0796C12.4738 31.0796 8.08402 26.6898 8.08398 21.2749C8.08412 15.8601 12.4738 11.4702 17.8887 11.4702ZM18.4111 16.6997C15.8845 16.7 13.8361 18.7482 13.8359 21.2749C13.836 23.8017 15.8844 25.8498 18.4111 25.8501C20.9251 25.8501 22.9654 23.823 22.9863 21.314V21.2349C22.9647 18.7265 20.9247 16.6997 18.4111 16.6997Z" fill="#1A1A1A"/>
</svg>
