<svg width="669" height="720" viewBox="0 0 669 720" fill="none" xmlns="http://www.w3.org/2000/svg">
<mask id="mask0_1730_1293" style="mask-type:alpha" maskUnits="userSpaceOnUse" x="0" y="0" width="669" height="720">
<path d="M0 0H669V720H0V0Z" fill="#1A1A1A"/>
</mask>
<g mask="url(#mask0_1730_1293)">
<path d="M677.16 206.721H508.439L677.16 38V206.721Z" fill="#303030"/>
<path fill-rule="evenodd" clip-rule="evenodd" d="M364.709 219.943C417.209 219.943 466.287 234.619 508.055 260.091V234.662H677.16V756.669H508.055V731.212C466.285 756.686 417.212 771.36 364.709 771.36C212.441 771.36 89.0011 647.919 89 495.652C89.0038 343.386 212.443 219.943 364.709 219.943ZM379.4 366.997C308.35 367.004 250.749 424.601 250.745 495.652C250.746 566.705 308.348 624.299 379.4 624.307C450.094 624.307 507.468 567.305 508.055 496.75V494.526C507.446 423.989 450.081 366.997 379.4 366.997Z" fill="#303030"/>
</g>
</svg>
