<svg width="259" height="53" viewBox="0 0 259 53" fill="none" xmlns="http://www.w3.org/2000/svg">
<path d="M129.375 26.3147C129.406 26.3134 129.437 26.3125 129.469 26.3125C130.66 26.3125 131.625 27.2779 131.625 28.4688V39.625H127.312V30.625H122.812L127.125 26.3125H129.375V26.3147Z" fill="white" fill-opacity="0.5"/>
<rect x="118.5" y="26.3125" width="4.3125" height="13.3125" fill="white" fill-opacity="0.5"/>
<path d="M83.7188 25.9375C85.058 25.9375 86.3096 26.3121 87.375 26.9619V26.3125H91.6875V39.625H87.375V38.9746C86.3095 39.6246 85.0581 40 83.7188 40C79.8355 40 76.6875 36.852 76.6875 32.9688C76.6875 29.0855 79.8355 25.9375 83.7188 25.9375ZM84.0938 29.6875C82.2816 29.6875 80.8125 31.1566 80.8125 32.9688C80.8125 34.7809 82.2816 36.25 84.0938 36.25C85.9059 36.25 87.375 34.7809 87.375 32.9688C87.375 31.1566 85.9059 29.6875 84.0938 29.6875Z" fill="white" fill-opacity="0.5"/>
<path d="M109.781 25.9375C113.665 25.9375 116.812 29.0855 116.812 32.9688C116.812 36.852 113.665 40 109.781 40C105.898 40 102.75 36.852 102.75 32.9688C102.75 29.0855 105.898 25.9375 109.781 25.9375ZM109.781 29.6875C107.969 29.6875 106.5 31.1566 106.5 32.9688C106.5 34.7809 107.969 36.25 109.781 36.25C111.593 36.25 113.062 34.7809 113.062 32.9688C113.062 31.1566 111.593 29.6875 109.781 29.6875Z" fill="white" fill-opacity="0.5"/>
<path d="M170.355 35.4489H174.435C173.787 36.9369 172.851 38.0889 171.723 38.8569C170.619 39.6489 169.299 40.0569 167.931 40.0569C164.115 40.0569 160.875 36.9609 160.875 33.0009C160.875 29.2809 163.803 25.8489 167.859 25.8489C171.915 25.8489 174.891 29.0649 174.891 33.1209C174.891 33.6489 174.843 33.8649 174.795 34.1769H164.811C165.051 35.7609 166.371 36.6969 167.931 36.6969C169.155 36.6969 169.803 36.1449 170.355 35.4489ZM164.859 31.4889H170.907C170.739 30.6969 169.947 29.2089 167.883 29.2089C165.819 29.2089 165.027 30.6969 164.859 31.4889Z" fill="white" fill-opacity="0.5"/>
<path d="M144 39.625H139.688V34.9375L144 30.625H139.688V26.3125H144V39.625Z" fill="white" fill-opacity="0.5"/>
<path d="M67.0312 25.9375C68.3705 25.9375 69.6221 26.3121 70.6875 26.9619V26.3125H75V39.625H70.6875V38.9746C69.622 39.6246 68.3706 40 67.0312 40C63.148 40 60 36.852 60 32.9688C60 29.0855 63.148 25.9375 67.0312 25.9375ZM67.4062 29.6875C65.5941 29.6875 64.125 31.1566 64.125 32.9688C64.125 34.7809 65.5941 36.25 67.4062 36.25C69.2184 36.25 70.6875 34.7809 70.6875 32.9688C70.6875 31.1566 69.2184 29.6875 67.4062 29.6875Z" fill="white" fill-opacity="0.5"/>
<rect x="93.5625" y="26.3125" width="4.3125" height="13.3125" fill="white" fill-opacity="0.5"/>
<path d="M102 26.125C99.7218 26.125 97.875 27.9718 97.875 30.25H102V26.125Z" fill="white" fill-opacity="0.5"/>
<path d="M137.812 39.625H133.5V26.3125L137.812 22V39.625Z" fill="white" fill-opacity="0.5"/>
<path d="M156.75 26.3147C156.781 26.3134 156.812 26.3125 156.844 26.3125C158.035 26.3125 159 27.2779 159 28.4688V39.625H154.688V30.625H150.188L154.5 26.3125H156.75V26.3147Z" fill="white" fill-opacity="0.5"/>
<rect x="145.875" y="26.3125" width="4.3125" height="13.3125" fill="white" fill-opacity="0.5"/>
<path d="M227.812 39.625H223.5V34.9375L227.812 30.625H223.5V26.3125H227.812V39.625Z" fill="white" fill-opacity="0.5"/>
<path d="M243.807 26.305V38.017C243.807 40.009 243.663 41.281 243.015 42.409C241.983 44.089 239.559 45.553 236.271 45.553C231.639 45.553 229.887 42.769 229.623 40.873H234.231C234.807 42.193 236.295 42.193 236.559 42.193C237.063 42.193 239.799 42.145 239.799 38.569V38.161H239.751C239.343 38.929 238.191 40.057 236.103 40.057C232.479 40.057 229.383 37.321 229.383 33.049C229.383 28.489 232.647 25.873 236.103 25.873C237.591 25.873 239.055 26.401 239.775 27.553H239.823V26.305H243.807ZM233.367 32.905C233.367 35.041 234.903 36.337 236.559 36.337C238.479 36.337 239.823 34.945 239.823 33.025C239.823 30.889 238.359 29.593 236.583 29.593C234.879 29.593 233.367 30.961 233.367 32.905Z" fill="white" fill-opacity="0.5"/>
<path d="M221.639 30.0489H217.727C217.703 29.7609 217.655 29.0409 216.479 29.0409C215.639 29.0409 215.351 29.5689 215.351 29.9289C215.351 30.6489 216.335 31.0569 217.391 31.3689C219.647 31.9929 222.047 32.6649 222.047 35.5449C222.047 38.3529 219.575 40.0809 216.623 40.0809C214.607 40.0809 211.559 39.1689 211.199 35.6649H215.159C215.327 36.8889 216.503 36.8889 216.671 36.8889C217.343 36.8889 218.063 36.5049 218.063 35.8569C218.063 34.8249 217.079 34.7049 214.535 33.7209C212.807 33.1689 211.367 32.0409 211.367 30.2409C211.367 27.6009 213.767 25.8489 216.527 25.8489C218.279 25.8489 221.303 26.5449 221.639 30.0489Z" fill="white" fill-opacity="0.5"/>
<path d="M205.757 35.4489H209.837C209.189 36.9369 208.253 38.0889 207.125 38.8569C206.021 39.6489 204.701 40.0569 203.333 40.0569C199.517 40.0569 196.277 36.9609 196.277 33.0009C196.277 29.2809 199.205 25.8489 203.261 25.8489C207.317 25.8489 210.293 29.0649 210.293 33.1209C210.293 33.6489 210.245 33.8649 210.197 34.1769H200.213C200.453 35.7609 201.773 36.6969 203.333 36.6969C204.557 36.6969 205.205 36.1449 205.757 35.4489ZM200.261 31.4889H206.309C206.141 30.6969 205.349 29.2089 203.285 29.2089C201.221 29.2089 200.429 30.6969 200.261 31.4889Z" fill="white" fill-opacity="0.5"/>
<path fill-rule="evenodd" clip-rule="evenodd" d="M194.812 39.625H190.5V38.9755C189.435 39.6254 188.183 40 186.844 40C182.96 40 179.812 36.852 179.812 32.9688C179.812 29.0855 182.96 25.9375 186.844 25.9375C188.183 25.9375 189.435 26.312 190.5 26.9618V26.3125L194.812 22V39.625ZM187.219 29.6875C185.407 29.6875 183.938 31.1566 183.938 32.9688C183.938 34.7809 185.407 36.25 187.219 36.25C189.031 36.25 190.5 34.7809 190.5 32.9688C190.5 31.1566 189.031 29.6875 187.219 29.6875Z" fill="white" fill-opacity="0.5"/>
<path d="M256.5 26.3147C256.531 26.3134 256.562 26.3125 256.594 26.3125C257.785 26.3125 258.75 27.2779 258.75 28.4688V39.625H254.438V30.625H249.938L254.25 26.3125H256.5V26.3147Z" fill="white" fill-opacity="0.5"/>
<rect x="245.625" y="26.3125" width="4.3125" height="13.3125" fill="white" fill-opacity="0.5"/>
<path d="M42.0004 12.0483H29.9521L42.0004 0V12.0483Z" fill="white"/>
<path fill-rule="evenodd" clip-rule="evenodd" d="M19.6882 12.9924C23.4373 12.9925 26.9419 14.0405 29.9245 15.8594V14.0435H42.0002V51.3198H29.9245V49.502C26.9418 51.3211 23.4375 52.3689 19.6882 52.3689C8.81486 52.3689 7.82445e-05 43.554 0 32.6807C0.000271571 21.8075 8.81498 12.9924 19.6882 12.9924ZM20.7374 23.4935C15.6637 23.494 11.5504 27.607 11.5502 32.6807C11.5502 37.7546 15.6636 41.8674 20.7374 41.8679C25.7856 41.8679 29.8826 37.7974 29.9245 32.7591V32.6003C29.8811 27.5633 25.7846 23.4935 20.7374 23.4935Z" fill="white"/>
</svg>
