<svg width="265" height="32" viewBox="0 0 265 32" fill="none" xmlns="http://www.w3.org/2000/svg">
<path d="M92.5 5.75293C92.5414 5.75116 92.5831 5.75 92.625 5.75C94.2128 5.75 95.5 7.03718 95.5 8.625V23.5H89.75V11.5H83.75L89.5 5.75H92.5V5.75293Z" fill="#9ACD32"/>
<rect x="78" y="5.75" width="5.75" height="17.75" fill="#9ACD32"/>
<path d="M31.625 5.25C33.4105 5.25 35.0796 5.74887 36.5 6.61523V5.75H42.25V23.5H36.5V22.6338C35.0795 23.5003 33.4107 24 31.625 24C26.4473 24 22.25 19.8027 22.25 14.625C22.25 9.44733 26.4473 5.25 31.625 5.25ZM32.125 10.25C29.7088 10.25 27.75 12.2088 27.75 14.625C27.75 17.0412 29.7088 19 32.125 19C34.5412 19 36.5 17.0412 36.5 14.625C36.5 12.2088 34.5412 10.25 32.125 10.25Z" fill="#9ACD32"/>
<path d="M66.375 5.25C71.5527 5.25 75.75 9.44733 75.75 14.625C75.75 19.8027 71.5527 24 66.375 24C61.1973 24 57 19.8027 57 14.625C57 9.44733 61.1973 5.25 66.375 5.25ZM66.375 10.25C63.9588 10.25 62 12.2088 62 14.625C62 17.0412 63.9588 19 66.375 19C68.7912 19 70.75 17.0412 70.75 14.625C70.75 12.2088 68.7912 10.25 66.375 10.25Z" fill="#9ACD32"/>
<path d="M147.14 17.9318H152.58C151.716 19.9158 150.468 21.4518 148.964 22.4758C147.492 23.5318 145.732 24.0758 143.908 24.0758C138.82 24.0758 134.5 19.9478 134.5 14.6678C134.5 9.70784 138.404 5.13184 143.812 5.13184C149.22 5.13184 153.188 9.41984 153.188 14.8278C153.188 15.5318 153.124 15.8198 153.06 16.2358H139.748C140.068 18.3478 141.828 19.5958 143.908 19.5958C145.54 19.5958 146.404 18.8598 147.14 17.9318ZM139.812 12.6518H147.876C147.652 11.5958 146.596 9.61184 143.844 9.61184C141.092 9.61184 140.036 11.5958 139.812 12.6518Z" fill="#9ACD32"/>
<path d="M112 23.5H106.25V17.25L112 11.5H106.25V5.75H112V23.5Z" fill="#9ACD32"/>
<path d="M9.375 5.25C11.1605 5.25 12.8296 5.74887 14.25 6.61523V5.75H20V23.5H14.25V22.6338C12.8295 23.5003 11.1607 24 9.375 24C4.19733 24 0 19.8027 0 14.625C0 9.44733 4.19733 5.25 9.375 5.25ZM9.875 10.25C7.45876 10.25 5.5 12.2088 5.5 14.625C5.5 17.0412 7.45875 19 9.875 19C12.2912 19 14.25 17.0412 14.25 14.625C14.25 12.2088 12.2912 10.25 9.875 10.25Z" fill="#9ACD32"/>
<rect x="44.75" y="5.75" width="5.75" height="17.75" fill="#9ACD32"/>
<path d="M56 5.5C52.9624 5.5 50.5 7.96243 50.5 11H56V5.5Z" fill="#9ACD32"/>
<path d="M103.75 23.5H98V5.75L103.75 0V23.5Z" fill="#9ACD32"/>
<path d="M129 5.75293C129.041 5.75116 129.083 5.75 129.125 5.75C130.713 5.75 132 7.03718 132 8.625V23.5H126.25V11.5H120.25L126 5.75H129V5.75293Z" fill="#9ACD32"/>
<rect x="114.5" y="5.75" width="5.75" height="17.75" fill="#9ACD32"/>
<path d="M223.75 23.5H218V17.25L223.75 11.5H218V5.75H223.75V23.5Z" fill="white"/>
<path d="M245.076 5.74006V21.3561C245.076 24.0121 244.884 25.7081 244.02 27.2121C242.644 29.4521 239.412 31.4041 235.028 31.4041C228.852 31.4041 226.516 27.6921 226.164 25.1641H232.308C233.076 26.9241 235.06 26.9241 235.412 26.9241C236.084 26.9241 239.732 26.8601 239.732 22.0921V21.5481H239.668C239.124 22.5721 237.588 24.0761 234.804 24.0761C229.972 24.0761 225.844 20.4281 225.844 14.7321C225.844 8.65206 230.196 5.16406 234.804 5.16406C236.788 5.16406 238.74 5.86806 239.7 7.40406H239.764V5.74006H245.076ZM231.156 14.5401C231.156 17.3881 233.204 19.1161 235.412 19.1161C237.972 19.1161 239.764 17.2601 239.764 14.7001C239.764 11.8521 237.812 10.1241 235.444 10.1241C233.172 10.1241 231.156 11.9481 231.156 14.5401Z" fill="white"/>
<path d="M215.52 10.7318H210.304C210.272 10.3478 210.208 9.38784 208.64 9.38784C207.52 9.38784 207.136 10.0918 207.136 10.5718C207.136 11.5318 208.448 12.0758 209.856 12.4918C212.864 13.3238 216.064 14.2198 216.064 18.0598C216.064 21.8038 212.768 24.1078 208.832 24.1078C206.144 24.1078 202.08 22.8918 201.6 18.2198H206.88C207.104 19.8518 208.672 19.8518 208.896 19.8518C209.792 19.8518 210.752 19.3398 210.752 18.4758C210.752 17.0998 209.44 16.9398 206.048 15.6278C203.744 14.8918 201.824 13.3878 201.824 10.9878C201.824 7.46783 205.024 5.13184 208.704 5.13184C211.04 5.13184 215.072 6.05983 215.52 10.7318Z" fill="white"/>
<path d="M194.343 17.9318H199.783C198.919 19.9158 197.671 21.4518 196.167 22.4758C194.695 23.5318 192.935 24.0758 191.111 24.0758C186.023 24.0758 181.703 19.9478 181.703 14.6678C181.703 9.70784 185.607 5.13184 191.015 5.13184C196.423 5.13184 200.391 9.41984 200.391 14.8278C200.391 15.5318 200.327 15.8198 200.263 16.2358H186.951C187.271 18.3478 189.031 19.5958 191.111 19.5958C192.743 19.5958 193.607 18.8598 194.343 17.9318ZM187.015 12.6518H195.079C194.855 11.5958 193.799 9.61184 191.047 9.61184C188.295 9.61184 187.239 11.5958 187.015 12.6518Z" fill="white"/>
<path fill-rule="evenodd" clip-rule="evenodd" d="M179.75 23.5H174V22.634C172.58 23.5005 170.911 24 169.125 24C163.947 24 159.75 19.8027 159.75 14.625C159.75 9.44733 163.947 5.25 169.125 5.25C170.911 5.25 172.58 5.74928 174 6.61572V5.75L179.75 0V23.5ZM169.625 10.25C167.209 10.25 165.25 12.2088 165.25 14.625C165.25 17.0412 167.209 19 169.625 19C172.041 19 174 17.0412 174 14.625C174 12.2088 172.041 10.25 169.625 10.25Z" fill="white"/>
<path d="M262 5.75293C262.041 5.75116 262.083 5.75 262.125 5.75C263.713 5.75 265 7.03718 265 8.625V23.5H259.25V11.5H253.25L259 5.75H262V5.75293Z" fill="white"/>
<rect x="247.5" y="5.75" width="5.75" height="17.75" fill="white"/>
</svg>
