<svg width="265" height="39" viewBox="0 0 265 39" fill="none" xmlns="http://www.w3.org/2000/svg">
<path d="M50.25 27.75C54 27.75 58.5 24.75 58.5 19.5C58.5 14.25 54 11.25 50.25 11.25H45.375H39.375L36 6H50.25C57.7058 6 63.75 12.0442 63.75 19.5C63.75 26.9558 57.7058 33 50.25 33H39L42.75 39H50.25C61.0196 39 69.75 30.2696 69.75 19.5C69.75 8.73045 61.0196 0 50.25 0H25.5L36 17.25H46.875H50.25C51.4926 17.25 52.5 18.2574 52.5 19.5C52.5 20.7426 51.4926 21.75 50.25 21.75H32.625L29.25 27.75H50.25Z" fill="white"/>
<path d="M25.5 0L33.75 0L8.25 39H0L25.5 0Z" fill="white"/>
<path d="M43.7656 39H36.2812L29.25 27.75L22.2188 39H14.7344L29.25 16.5L43.7656 39Z" fill="white"/>
<path d="M93.315 23.84H87.755L86.835 26.5H83.895L88.915 12.52H92.175L97.195 26.5H94.235L93.315 23.84ZM92.555 21.6L90.535 15.76L88.515 21.6H92.555ZM107.031 23.84H101.471L100.551 26.5H97.6114L102.631 12.52H105.891L110.911 26.5H107.951L107.031 23.84ZM106.271 21.6L104.251 15.76L102.231 21.6H106.271ZM119.388 26.5L116.308 21.06H114.988V26.5H112.188V12.54H117.428C118.508 12.54 119.428 12.7333 120.188 13.12C120.948 13.4933 121.514 14.0067 121.888 14.66C122.274 15.3 122.468 16.02 122.468 16.82C122.468 17.74 122.201 18.5733 121.668 19.32C121.134 20.0533 120.341 20.56 119.288 20.84L122.628 26.5H119.388ZM114.988 18.96H117.328C118.088 18.96 118.654 18.78 119.028 18.42C119.401 18.0467 119.588 17.5333 119.588 16.88C119.588 16.24 119.401 15.7467 119.028 15.4C118.654 15.04 118.088 14.86 117.328 14.86H114.988V18.96ZM130.88 26.64C129.574 26.64 128.374 26.3333 127.28 25.72C126.187 25.1067 125.32 24.26 124.68 23.18C124.04 22.0867 123.72 20.8533 123.72 19.48C123.72 18.12 124.04 16.9 124.68 15.82C125.32 14.7267 126.187 13.8733 127.28 13.26C128.374 12.6467 129.574 12.34 130.88 12.34C132.2 12.34 133.4 12.6467 134.48 13.26C135.574 13.8733 136.434 14.7267 137.06 15.82C137.7 16.9 138.02 18.12 138.02 19.48C138.02 20.8533 137.7 22.0867 137.06 23.18C136.434 24.26 135.574 25.1067 134.48 25.72C133.387 26.3333 132.187 26.64 130.88 26.64ZM130.88 24.14C131.72 24.14 132.46 23.9533 133.1 23.58C133.74 23.1933 134.24 22.6467 134.6 21.94C134.96 21.2333 135.14 20.4133 135.14 19.48C135.14 18.5467 134.96 17.7333 134.6 17.04C134.24 16.3333 133.74 15.7933 133.1 15.42C132.46 15.0467 131.72 14.86 130.88 14.86C130.04 14.86 129.294 15.0467 128.64 15.42C128 15.7933 127.5 16.3333 127.14 17.04C126.78 17.7333 126.6 18.5467 126.6 19.48C126.6 20.4133 126.78 21.2333 127.14 21.94C127.5 22.6467 128 23.1933 128.64 23.58C129.294 23.9533 130.04 24.14 130.88 24.14ZM151.443 26.5H148.643L142.303 16.92V26.5H139.503V12.52H142.303L148.643 22.12V12.52H151.443V26.5ZM156.41 24.28H161.01V26.5H153.61V12.54H156.41V24.28ZM164.99 12.54V26.5H162.19V12.54H164.99ZM179.097 26.5H176.297L169.957 16.92V26.5H167.157V12.52H169.957L176.297 22.12V12.52H179.097V26.5ZM184.064 14.8V18.3H188.764V20.52H184.064V24.22H189.364V26.5H181.264V12.52H189.364V14.8H184.064ZM200.354 12.54C201.82 12.54 203.107 12.8267 204.214 13.4C205.334 13.9733 206.194 14.7933 206.794 15.86C207.407 16.9133 207.714 18.14 207.714 19.54C207.714 20.94 207.407 22.1667 206.794 23.22C206.194 24.26 205.334 25.0667 204.214 25.64C203.107 26.2133 201.82 26.5 200.354 26.5H195.474V12.54H200.354ZM200.254 24.12C201.72 24.12 202.854 23.72 203.654 22.92C204.454 22.12 204.854 20.9933 204.854 19.54C204.854 18.0867 204.454 16.9533 203.654 16.14C202.854 15.3133 201.72 14.9 200.254 14.9H198.274V24.12H200.254ZM212.01 14.8V18.3H216.71V20.52H212.01V24.22H217.31V26.5H209.21V12.52H217.31V14.8H212.01ZM224.074 26.64C223.101 26.64 222.221 26.4733 221.434 26.14C220.661 25.8067 220.048 25.3267 219.594 24.7C219.141 24.0733 218.908 23.3333 218.894 22.48H221.894C221.934 23.0533 222.134 23.5067 222.494 23.84C222.868 24.1733 223.374 24.34 224.014 24.34C224.668 24.34 225.181 24.1867 225.554 23.88C225.928 23.56 226.114 23.1467 226.114 22.64C226.114 22.2267 225.988 21.8867 225.734 21.62C225.481 21.3533 225.161 21.1467 224.774 21C224.401 20.84 223.881 20.6667 223.214 20.48C222.308 20.2133 221.568 19.9533 220.994 19.7C220.434 19.4333 219.948 19.04 219.534 18.52C219.134 17.9867 218.934 17.28 218.934 16.4C218.934 15.5733 219.141 14.8533 219.554 14.24C219.968 13.6267 220.548 13.16 221.294 12.84C222.041 12.5067 222.894 12.34 223.854 12.34C225.294 12.34 226.461 12.6933 227.354 13.4C228.261 14.0933 228.761 15.0667 228.854 16.32H225.774C225.748 15.84 225.541 15.4467 225.154 15.14C224.781 14.82 224.281 14.66 223.654 14.66C223.108 14.66 222.668 14.8 222.334 15.08C222.014 15.36 221.854 15.7667 221.854 16.3C221.854 16.6733 221.974 16.9867 222.214 17.24C222.468 17.48 222.774 17.68 223.134 17.84C223.508 17.9867 224.028 18.16 224.694 18.36C225.601 18.6267 226.341 18.8933 226.914 19.16C227.488 19.4267 227.981 19.8267 228.394 20.36C228.808 20.8933 229.014 21.5933 229.014 22.46C229.014 23.2067 228.821 23.9 228.434 24.54C228.048 25.18 227.481 25.6933 226.734 26.08C225.988 26.4533 225.101 26.64 224.074 26.64ZM233.642 12.54V26.5H230.842V12.54H233.642ZM245.528 16.74C245.208 16.1533 244.768 15.7067 244.208 15.4C243.648 15.0933 242.995 14.94 242.248 14.94C241.421 14.94 240.688 15.1267 240.048 15.5C239.408 15.8733 238.908 16.4067 238.548 17.1C238.188 17.7933 238.008 18.5933 238.008 19.5C238.008 20.4333 238.188 21.2467 238.548 21.94C238.921 22.6333 239.435 23.1667 240.088 23.54C240.741 23.9133 241.501 24.1 242.368 24.1C243.435 24.1 244.308 23.82 244.988 23.26C245.668 22.6867 246.115 21.8933 246.328 20.88H241.528V18.74H249.088V21.18C248.901 22.1533 248.501 23.0533 247.888 23.88C247.275 24.7067 246.481 25.3733 245.508 25.88C244.548 26.3733 243.468 26.62 242.268 26.62C240.921 26.62 239.701 26.32 238.608 25.72C237.528 25.1067 236.675 24.26 236.048 23.18C235.435 22.1 235.128 20.8733 235.128 19.5C235.128 18.1267 235.435 16.9 236.048 15.82C236.675 14.7267 237.528 13.88 238.608 13.28C239.701 12.6667 240.915 12.36 242.248 12.36C243.821 12.36 245.188 12.7467 246.348 13.52C247.508 14.28 248.308 15.3533 248.748 16.74H245.528ZM262.5 26.5H259.7L253.36 16.92V26.5H250.56V12.52H253.36L259.7 22.12V12.52H262.5V26.5Z" fill="white"/>
</svg>
