<svg width="282" height="39" viewBox="0 0 282 39" fill="none" xmlns="http://www.w3.org/2000/svg">
<path d="M151.75 11.8147C151.781 11.8134 151.812 11.8125 151.844 11.8125C153.035 11.8125 154 12.7779 154 13.9688V25.125H149.688V16.125H145.188L149.5 11.8125H151.75V11.8147Z" fill="white"/>
<rect x="140.875" y="11.8125" width="4.3125" height="13.3125" fill="white"/>
<path d="M106.094 11.4375C107.433 11.4375 108.685 11.8121 109.75 12.4619V11.8125H114.062V25.125H109.75V24.4746C108.685 25.1246 107.433 25.5 106.094 25.5C102.21 25.5 99.0625 22.352 99.0625 18.4688C99.0625 14.5855 102.21 11.4375 106.094 11.4375ZM106.469 15.1875C104.657 15.1875 103.188 16.6566 103.188 18.4688C103.188 20.2809 104.657 21.75 106.469 21.75C108.281 21.75 109.75 20.2809 109.75 18.4688C109.75 16.6566 108.281 15.1875 106.469 15.1875Z" fill="white"/>
<path d="M132.156 11.4375C136.04 11.4375 139.188 14.5855 139.188 18.4688C139.188 22.352 136.04 25.5 132.156 25.5C128.273 25.5 125.125 22.352 125.125 18.4688C125.125 14.5855 128.273 11.4375 132.156 11.4375ZM132.156 15.1875C130.344 15.1875 128.875 16.6566 128.875 18.4688C128.875 20.2809 130.344 21.75 132.156 21.75C133.968 21.75 135.437 20.2809 135.438 18.4688C135.438 16.6566 133.968 15.1875 132.156 15.1875Z" fill="white"/>
<path d="M192.73 20.9489H196.81C196.162 22.4369 195.226 23.5889 194.098 24.3569C192.994 25.1489 191.674 25.5569 190.306 25.5569C186.49 25.5569 183.25 22.4609 183.25 18.5009C183.25 14.7809 186.178 11.3489 190.234 11.3489C194.29 11.3489 197.266 14.5649 197.266 18.6209C197.266 19.1489 197.218 19.3649 197.17 19.6769H187.186C187.426 21.2609 188.746 22.1969 190.306 22.1969C191.53 22.1969 192.178 21.6449 192.73 20.9489ZM187.234 16.9889H193.282C193.114 16.1969 192.322 14.7089 190.258 14.7089C188.194 14.7089 187.402 16.1969 187.234 16.9889Z" fill="white"/>
<path d="M166.375 25.125H162.062V20.4375L166.375 16.125H162.062V11.8125H166.375V25.125Z" fill="white"/>
<path d="M89.4062 11.4375C90.7455 11.4375 91.9971 11.8121 93.0625 12.4619V11.8125H97.375V25.125H93.0625V24.4746C91.997 25.1246 90.7456 25.5 89.4062 25.5C85.523 25.5 82.375 22.352 82.375 18.4688C82.375 14.5855 85.523 11.4375 89.4062 11.4375ZM89.7812 15.1875C87.9691 15.1875 86.5 16.6566 86.5 18.4688C86.5 20.2809 87.9691 21.75 89.7812 21.75C91.5934 21.75 93.0625 20.2809 93.0625 18.4688C93.0625 16.6566 91.5934 15.1875 89.7812 15.1875Z" fill="white"/>
<rect x="115.938" y="11.8125" width="4.3125" height="13.3125" fill="white"/>
<path d="M124.375 11.625C122.097 11.625 120.25 13.4718 120.25 15.75H124.375V11.625Z" fill="white"/>
<path d="M160.188 25.125H155.875V11.8125L160.188 7.5V25.125Z" fill="white"/>
<path d="M179.125 11.8147C179.156 11.8134 179.187 11.8125 179.219 11.8125C180.41 11.8125 181.375 12.7779 181.375 13.9688V25.125H177.062V16.125H172.562L176.875 11.8125H179.125V11.8147Z" fill="white"/>
<rect x="168.25" y="11.8125" width="4.3125" height="13.3125" fill="white"/>
<path d="M250.188 25.125H245.875V20.4375L250.188 16.125H245.875V11.8125H250.188V25.125Z" fill="white"/>
<path d="M266.182 11.805V23.517C266.182 25.509 266.038 26.781 265.39 27.909C264.358 29.589 261.934 31.053 258.646 31.053C254.014 31.053 252.262 28.269 251.998 26.373H256.606C257.182 27.693 258.67 27.693 258.934 27.693C259.438 27.693 262.174 27.645 262.174 24.069V23.661H262.126C261.718 24.429 260.566 25.557 258.478 25.557C254.854 25.557 251.758 22.821 251.758 18.549C251.758 13.989 255.022 11.373 258.478 11.373C259.966 11.373 261.43 11.901 262.15 13.053H262.198V11.805H266.182ZM255.742 18.405C255.742 20.541 257.278 21.837 258.934 21.837C260.854 21.837 262.198 20.445 262.198 18.525C262.198 16.389 260.734 15.093 258.958 15.093C257.254 15.093 255.742 16.461 255.742 18.405Z" fill="white"/>
<path d="M244.014 15.5489H240.102C240.078 15.2609 240.03 14.5409 238.854 14.5409C238.014 14.5409 237.726 15.0689 237.726 15.4289C237.726 16.1489 238.71 16.5569 239.766 16.8689C242.022 17.4929 244.422 18.1649 244.422 21.0449C244.422 23.8529 241.95 25.5809 238.998 25.5809C236.982 25.5809 233.934 24.6689 233.574 21.1649H237.534C237.702 22.3889 238.878 22.3889 239.046 22.3889C239.718 22.3889 240.438 22.0049 240.438 21.3569C240.438 20.3249 239.454 20.2049 236.91 19.2209C235.182 18.6689 233.742 17.5409 233.742 15.7409C233.742 13.1009 236.142 11.3489 238.902 11.3489C240.654 11.3489 243.678 12.0449 244.014 15.5489Z" fill="white"/>
<path d="M228.132 20.9489H232.212C231.564 22.4369 230.628 23.5889 229.5 24.3569C228.396 25.1489 227.076 25.5569 225.708 25.5569C221.892 25.5569 218.652 22.4609 218.652 18.5009C218.652 14.7809 221.58 11.3489 225.636 11.3489C229.692 11.3489 232.668 14.5649 232.668 18.6209C232.668 19.1489 232.62 19.3649 232.572 19.6769H222.588C222.828 21.2609 224.148 22.1969 225.708 22.1969C226.932 22.1969 227.58 21.6449 228.132 20.9489ZM222.636 16.9889H228.684C228.516 16.1969 227.724 14.7089 225.66 14.7089C223.596 14.7089 222.804 16.1969 222.636 16.9889Z" fill="white"/>
<path fill-rule="evenodd" clip-rule="evenodd" d="M217.188 25.125H212.875V24.4755C211.81 25.1254 210.558 25.5 209.219 25.5C205.335 25.5 202.188 22.352 202.188 18.4688C202.188 14.5855 205.335 11.4375 209.219 11.4375C210.558 11.4375 211.81 11.812 212.875 12.4618V11.8125L217.188 7.5V25.125ZM209.594 15.1875C207.782 15.1875 206.312 16.6566 206.312 18.4688C206.312 20.2809 207.782 21.75 209.594 21.75C211.406 21.75 212.875 20.2809 212.875 18.4688C212.875 16.6566 211.406 15.1875 209.594 15.1875Z" fill="white"/>
<path d="M278.875 11.8147C278.906 11.8134 278.937 11.8125 278.969 11.8125C280.16 11.8125 281.125 12.7779 281.125 13.9688V25.125H276.812V16.125H272.312L276.625 11.8125H278.875V11.8147Z" fill="white"/>
<rect x="268" y="11.8125" width="4.3125" height="13.3125" fill="white"/>
<path d="M50.25 27.75C54 27.75 58.5 24.75 58.5 19.5C58.5 14.25 54 11.25 50.25 11.25H45.375H39.375L36 6H50.25C57.7058 6 63.75 12.0442 63.75 19.5C63.75 26.9558 57.7058 33 50.25 33H39L42.75 39H50.25C61.0196 39 69.75 30.2696 69.75 19.5C69.75 8.73045 61.0196 0 50.25 0H25.5L36 17.25H46.875H50.25C51.4926 17.25 52.5 18.2574 52.5 19.5C52.5 20.7426 51.4926 21.75 50.25 21.75H32.625L29.25 27.75H50.25Z" fill="#D6FD70"/>
<path d="M25.5 0L33.75 0L8.25 39H0L25.5 0Z" fill="white"/>
<path d="M43.7659 39H36.2812L29.25 27.75V16.5L43.7659 39Z" fill="white"/>
<path d="M29.2502 27.75L22.219 39H14.7344L29.2502 16.5V27.75Z" fill="white"/>
</svg>
