<svg width="38" height="38" viewBox="0 0 38 38" fill="none" xmlns="http://www.w3.org/2000/svg">
<rect width="38" height="38" fill="white"/>
<mask id="mask0_1969_16" style="mask-type:alpha" maskUnits="userSpaceOnUse" x="0" y="4" width="38" height="30">
<rect y="4" width="38" height="30" fill="#1A1A1A"/>
</mask>
<g mask="url(#mask0_1969_16)">
<path d="M24.92 24.6148C27.4355 24.6148 30.4542 22.6024 30.4542 19.0807C30.4542 15.559 27.4355 13.5465 24.92 13.5465H21.6498H17.6249L15.3609 10.0248H24.92C29.9214 10.0248 33.9759 14.0793 33.9759 19.0807C33.9759 24.0821 29.9214 28.1365 24.92 28.1365H17.3733L19.8889 32.1614H24.92C32.1443 32.1614 38.0008 26.3049 38.0008 19.0807C38.0008 11.8564 32.1443 6 24.92 6H8.31738L15.3609 17.5714H22.656H24.92C25.7535 17.5714 26.4293 18.2471 26.4293 19.0807C26.4293 19.9143 25.7535 20.59 24.92 20.59H13.0969L10.8329 24.6148H24.92Z" fill="black"/>
<path d="M8.31761 6L13.8518 6L-3.25389 32.1614H-8.78809L8.31761 6Z" fill="black"/>
<path d="M20.5704 32.1615H15.5497L10.833 24.6149V17.0684L20.5704 32.1615Z" fill="black"/>
<path d="M10.8321 24.6149L6.1155 32.1615H1.09473L10.8321 17.0684V24.6149Z" fill="black"/>
</g>
</svg>
