<svg width="86" height="86" viewBox="0 0 86 86" fill="none" xmlns="http://www.w3.org/2000/svg">
<path d="M24 12C24 18.6274 18.6274 24 12 24C5.37258 24 0 18.6274 0 12C0 5.37258 5.37258 0 12 0C18.6274 0 24 5.37258 24 12Z" fill="#D6FD70"/>
<path d="M24 43C24 49.6274 18.6274 55 12 55C5.37258 55 0 49.6274 0 43C0 36.3726 5.37258 31 12 31C18.6274 31 24 36.3726 24 43Z" fill="#D6FD70"/>
<path d="M55 12C55 18.6274 49.6274 24 43 24C36.3726 24 31 18.6274 31 12C31 5.37258 36.3726 0 43 0C49.6274 0 55 5.37258 55 12Z" fill="#D6FD70"/>
<path d="M55 43C55 49.6274 49.6274 55 43 55C36.3726 55 31 49.6274 31 43C31 36.3726 36.3726 31 43 31C49.6274 31 55 36.3726 55 43Z" fill="#D6FD70"/>
<path d="M86 12C86 18.6274 80.6274 24 74 24C67.3726 24 62 18.6274 62 12C62 5.37258 67.3726 0 74 0C80.6274 0 86 5.37258 86 12Z" fill="#D6FD70"/>
<path d="M86 43C86 49.6274 80.6274 55 74 55C67.3726 55 62 49.6274 62 43C62 36.3726 67.3726 31 74 31C80.6274 31 86 36.3726 86 43Z" fill="#D6FD70"/>
<path d="M24 74C24 80.6274 18.6274 86 12 86C5.37258 86 0 80.6274 0 74C0 67.3726 5.37258 62 12 62C18.6274 62 24 67.3726 24 74Z" fill="#D6FD70"/>
<path d="M55 74C55 80.6274 49.6274 86 43 86C36.3726 86 31 80.6274 31 74C31 67.3726 36.3726 62 43 62C49.6274 62 55 67.3726 55 74Z" fill="#D6FD70"/>
<path d="M86 74C86 80.6274 80.6274 86 74 86C67.3726 86 62 80.6274 62 74C62 67.3726 67.3726 62 74 62C80.6274 62 86 67.3726 86 74Z" fill="#D6FD70"/>
</svg>
