<svg width="259" height="1242" viewBox="0 0 259 1242" fill="none" xmlns="http://www.w3.org/2000/svg">
<mask id="mask0_2020_13" style="mask-type:alpha" maskUnits="userSpaceOnUse" x="0" y="0" width="259" height="1242">
<rect width="259" height="1242" fill="#D9D9D9"/>
</mask>
<g mask="url(#mask0_2020_13)">
<path d="M183.565 1258.06L-63.7073 1258.06L-63.7073 1151.33C-63.7073 1132.98 -60.0852 1116.92 -52.8408 1103.15C-45.5965 1089.39 -35.4142 1078.69 -22.294 1071.04C-9.1737 1063.39 6.16011 1059.57 23.7075 1059.57C41.4158 1059.57 56.7496 1063.51 69.7089 1071.4C82.6682 1079.21 92.6492 1090.2 99.6521 1104.36C106.655 1118.45 110.156 1134.91 110.156 1153.74L110.156 1217.49L57.9972 1217.49L57.9972 1167.27C57.9972 1159.38 56.6289 1152.66 53.8921 1147.1C51.0749 1141.47 47.0905 1137.16 41.939 1134.18C36.7875 1131.13 30.7103 1129.6 23.7075 1129.6C16.6241 1129.6 10.5872 1131.13 5.59667 1134.18C0.525643 1137.16 -3.338 1141.47 -5.99425 1147.1C-8.73099 1152.66 -10.0994 1159.38 -10.0994 1167.27L-10.0994 1190.93L183.565 1190.93L183.565 1258.06ZM183.565 1050.97L-1.88913 1050.97L-1.88914 986.256L33.3665 986.256L33.3665 984.324C20.3268 980.943 10.7884 975.59 4.75149 968.266C-1.28544 960.86 -4.30391 952.207 -4.30391 942.307C-4.30391 939.409 -4.06243 936.552 -3.57947 933.734C-3.17701 930.837 -2.57332 928.06 -1.7684 925.403L55.0995 925.403C53.9726 928.704 53.1274 932.768 52.564 937.598C52.0005 942.428 51.7188 946.573 51.7188 950.034C51.7188 956.554 53.2079 962.43 56.1861 967.662C59.0839 972.813 63.189 976.878 68.5015 979.857C73.7335 982.835 79.8912 984.324 86.9745 984.324L183.565 984.324L183.565 1050.97ZM186.946 841.828C186.946 861.951 182.962 879.177 174.993 893.504C166.944 907.832 155.755 918.819 141.428 926.466C127.019 934.113 110.317 937.936 91.3211 937.936C72.3249 937.936 55.6629 934.113 41.3353 926.466C26.9271 918.819 15.7387 907.832 7.76994 893.504C-0.279294 879.177 -4.30391 861.951 -4.30391 841.828C-4.30391 821.705 -0.279299 804.48 7.76993 790.152C15.7387 775.824 26.9271 764.837 41.3353 757.19C55.6629 749.544 72.3249 745.72 91.3211 745.72C110.317 745.72 127.019 749.544 141.428 757.19C155.755 764.837 166.944 775.824 174.993 790.152C182.962 804.48 186.946 821.705 186.946 841.828ZM137.685 841.345C137.685 835.711 135.793 830.841 132.01 826.736C128.227 822.631 122.834 819.451 115.831 817.197C108.828 814.944 100.497 813.817 90.8381 813.817C81.0985 813.817 72.7676 814.944 65.8452 817.197C58.8424 819.451 53.4494 822.631 49.6663 826.736C45.8831 830.841 43.9915 835.711 43.9915 841.345C43.9915 847.302 45.8831 852.413 49.6663 856.679C53.4494 860.945 58.8424 864.205 65.8452 866.459C72.7676 868.713 81.0985 869.839 90.8381 869.839C100.497 869.839 108.828 868.713 115.831 866.459C122.834 864.205 128.227 860.945 132.01 856.679C135.793 852.413 137.685 847.302 137.685 841.345ZM-1.88915 735.675L-1.88916 669.027L189.844 669.027C206.103 669.027 218.821 672.448 227.997 679.29C237.173 686.051 243.653 695.549 247.436 707.784C251.219 720.019 253.111 734.306 253.111 750.646C253.111 753.061 253.071 755.275 252.99 757.287C252.91 759.38 252.789 761.674 252.628 764.169L203.367 764.169C203.528 762.559 203.648 761.151 203.729 759.943C203.809 758.816 203.849 757.649 203.849 756.442C203.849 748.473 202.602 743.04 200.107 740.142C197.692 737.164 193.788 735.675 188.395 735.675L-1.88915 735.675ZM-21.2073 702.351C-21.2073 711.366 -24.1856 719.093 -30.142 725.533C-36.0984 731.972 -43.2623 735.192 -51.6335 735.192C-60.0047 735.192 -67.1685 731.972 -73.125 725.533C-79.0814 719.093 -82.0596 711.366 -82.0596 702.351C-82.0596 693.255 -79.0814 685.528 -73.125 679.169C-67.1685 672.73 -60.0047 669.51 -51.6335 669.51C-43.2623 669.51 -36.0984 672.73 -30.142 679.169C-24.1856 685.528 -21.2073 693.255 -21.2073 702.351ZM186.946 563.206C186.946 583.007 183.163 600.071 175.597 614.399C167.95 628.646 157.003 639.633 142.756 647.36C128.428 655.007 111.283 658.831 91.3211 658.831C72.1639 658.831 55.4215 654.967 41.0938 647.24C26.7661 639.512 15.6179 628.606 7.6492 614.52C-0.319551 600.433 -4.30393 583.812 -4.30393 564.654C-4.30393 550.649 -2.13064 537.971 2.21595 526.622C6.56254 515.272 12.8812 505.573 21.1719 497.524C29.3821 489.475 39.3632 483.277 51.1151 478.93C62.867 474.583 76.108 472.41 90.8381 472.41L106.293 472.41L106.293 638.064L69.5881 638.064L69.5881 533.745C64.2756 533.826 59.607 535.194 55.5824 537.85C51.4773 540.426 48.2979 543.928 46.0441 548.355C43.7098 552.701 42.5427 557.652 42.5427 563.206C42.5427 568.599 43.7098 573.549 46.0441 578.056C48.2979 582.564 51.4371 586.186 55.4617 588.923C59.4863 591.579 64.1951 592.988 69.5881 593.149L109.19 593.149C115.147 593.149 120.459 591.901 125.128 589.406C129.796 586.911 133.459 583.329 136.115 578.66C138.771 573.992 140.099 568.357 140.099 561.757C140.099 557.169 139.456 552.983 138.168 549.2C136.88 545.336 135.028 542.036 132.614 539.299C130.118 536.563 127.14 534.55 123.679 533.262L123.679 472.41C136.558 474.503 147.746 479.453 157.244 487.261C166.662 495.069 173.987 505.412 179.219 518.291C184.37 531.089 186.946 546.061 186.946 563.206ZM186.946 372.867C186.946 392.99 182.962 410.216 174.993 424.543C166.944 438.871 155.755 449.858 141.428 457.505C127.019 465.152 110.317 468.975 91.3211 468.975C72.3248 468.975 55.6629 465.152 41.3353 457.505C26.9271 449.858 15.7387 438.871 7.76991 424.543C-0.279322 410.216 -4.30394 392.99 -4.30394 372.867C-4.30394 354.676 -1.00375 338.94 5.59662 325.658C12.1165 312.297 21.3731 301.953 33.3665 294.629C45.2794 287.304 59.2851 283.601 75.3836 283.521L75.3836 345.339C65.644 346.224 58.2387 349.041 53.1676 353.79C48.0161 358.459 45.4404 364.496 45.4404 371.901C45.4404 377.697 47.1307 382.768 50.5114 387.114C53.8116 391.461 58.8424 394.842 65.6037 397.256C72.2846 399.671 80.6961 400.879 90.8381 400.879C100.98 400.879 109.432 399.671 116.193 397.256C122.874 394.842 127.905 391.461 131.286 387.114C134.586 382.768 136.236 377.697 136.236 371.901C136.236 366.991 135.109 362.645 132.855 358.861C130.521 355.078 127.14 352.02 122.713 349.685C118.206 347.271 112.732 345.822 106.293 345.339L106.293 283.521C122.633 283.762 136.88 287.505 149.034 294.749C161.108 301.994 170.445 312.256 177.045 325.538C183.646 338.738 186.946 354.515 186.946 372.867ZM-1.88919 162.426L46.4063 162.426L46.4063 284.613L-1.88918 284.613L-1.88919 162.426ZM-46.321 260.949L-46.321 194.301L123.92 194.301C126.496 194.301 128.67 193.858 130.44 192.973C132.131 192.087 133.419 190.719 134.304 188.868C135.109 187.016 135.511 184.642 135.511 181.744C135.511 179.732 135.27 177.397 134.787 174.741C134.304 172.004 133.902 169.992 133.58 168.704L180.426 159.045C181.312 162.023 182.398 166.289 183.686 171.843C184.974 177.317 185.819 183.837 186.222 191.403C187.027 206.697 185.457 219.535 181.513 229.919C177.488 240.302 171.17 248.11 162.557 253.342C153.944 258.574 143.158 261.109 130.199 260.948L-46.321 260.949ZM58.4801 -15.2955L58.4801 46.0398C54.697 46.3617 51.437 47.6899 48.7003 50.0241C45.9636 52.3584 43.8708 55.3769 42.4219 59.0795C40.8925 62.7017 40.1279 66.7263 40.1279 71.1534C40.1279 76.8684 41.1743 81.7784 43.2671 85.8835C45.3599 89.9886 48.3381 92.0009 52.2017 91.9204C54.9385 92.0009 57.474 90.8338 59.8083 88.419C62.1425 85.9238 63.9536 81.1345 65.2415 74.0511L72.0029 36.3807C75.464 17.3845 81.2997 3.25803 89.51 -5.9986C97.6397 -15.3357 108.546 -20.0445 122.23 -20.125C135.431 -20.0445 146.901 -16.1004 156.641 -8.29263C166.3 -0.565355 173.786 10.0194 179.098 23.4616C184.33 36.8234 186.946 52.0767 186.946 69.2216C186.946 97.5549 181.151 119.731 169.56 135.749C157.969 151.686 142.675 160.58 123.679 162.432L123.679 96.267C129.555 95.3816 134.103 92.4839 137.322 87.5739C140.462 82.5833 142.031 76.3049 142.031 68.7386C142.031 62.6212 140.985 57.5904 138.892 53.6463C136.799 49.6217 133.821 47.5691 129.957 47.4886C126.416 47.5691 123.599 49.34 121.506 52.8011C119.413 56.1818 117.723 61.4943 116.435 68.7386L110.639 101.58C107.339 120.495 101.061 134.662 91.804 144.08C82.5474 153.497 70.6345 158.166 56.0654 158.085C43.1866 158.166 32.2798 154.785 23.3452 147.943C14.33 141.021 7.48817 131.161 2.81962 118.362C-1.92943 105.483 -4.30396 90.2301 -4.30396 72.6023C-4.30396 45.7983 1.25002 24.669 12.358 9.21448C23.4659 -6.32056 38.84 -14.4905 58.4801 -15.2955Z" fill="#2F2F2F" fill-opacity="0.1"/>
</g>
</svg>
