<svg width="206" height="1336" viewBox="0 0 206 1336" fill="none" xmlns="http://www.w3.org/2000/svg">
<mask id="mask0_2017_12" style="mask-type:alpha" maskUnits="userSpaceOnUse" x="0" y="0" width="206" height="1336">
<rect width="206" height="1336" fill="#D9D9D9"/>
</mask>
<g mask="url(#mask0_2017_12)">
<path d="M14.5654 1218.77C6.51618 1219.41 0.237765 1222.43 -4.26981 1227.82C-8.77739 1233.13 -11.0312 1241.22 -11.0312 1252.09C-11.0312 1259.01 -10.186 1264.69 -8.49567 1269.12C-6.88581 1273.46 -4.67227 1276.68 -1.85504 1278.77C0.962195 1280.87 4.1819 1281.95 7.80406 1282.03C10.7823 1282.2 13.4788 1281.67 15.8935 1280.46C18.2278 1279.18 20.3609 1277.16 22.2927 1274.43C24.144 1271.69 25.8344 1268.19 27.3637 1263.92C28.8931 1259.66 30.2614 1254.59 31.4688 1248.71L35.8154 1228.43C38.7131 1214.74 42.5365 1203.03 47.2856 1193.29C52.0346 1183.55 57.6289 1175.58 64.0683 1169.38C70.4272 1163.19 77.591 1158.64 85.5597 1155.74C93.5285 1152.76 102.222 1151.23 111.639 1151.15C127.899 1151.23 141.663 1155.3 152.932 1163.35C164.201 1171.4 172.773 1182.91 178.649 1197.88C184.525 1212.77 187.463 1230.68 187.463 1251.61C187.463 1273.1 184.284 1291.85 177.925 1307.87C171.566 1323.81 161.786 1336.21 148.585 1345.06C135.304 1353.83 118.32 1358.26 97.6336 1358.34L97.6336 1294.59C105.2 1294.19 111.559 1292.3 116.71 1288.92C121.862 1285.54 125.766 1280.79 128.422 1274.67C131.078 1268.47 132.406 1261.11 132.406 1252.57C132.406 1245.41 131.521 1239.41 129.75 1234.58C127.979 1229.75 125.524 1226.09 122.385 1223.6C119.246 1221.1 115.664 1219.81 111.639 1219.73C107.856 1219.81 104.556 1221.06 101.739 1223.48C98.841 1225.81 96.2652 1229.67 94.0114 1235.07C91.6772 1240.46 89.5039 1247.74 87.4916 1256.92L82.1791 1281.55C77.43 1303.45 69.5015 1320.71 58.3936 1333.35C47.2051 1345.9 31.9518 1352.14 12.6336 1352.06C-3.06242 1352.14 -16.7864 1347.96 -28.5383 1339.51C-40.3707 1330.97 -49.587 1319.18 -56.1874 1304.13C-62.7878 1289 -66.088 1271.65 -66.088 1252.09C-66.088 1232.13 -62.7476 1214.86 -56.0667 1200.29C-49.3858 1185.72 -39.9682 1174.5 -27.8138 1166.61C-15.74 1158.64 -1.61357 1154.61 14.5654 1154.53L14.5654 1218.77ZM187.946 1052.79C187.946 1072.59 184.163 1089.65 176.597 1103.98C168.95 1118.23 158.003 1129.22 143.756 1136.94C129.428 1144.59 112.283 1148.41 92.3211 1148.41C73.1639 1148.41 56.4215 1144.55 42.0938 1136.82C27.7662 1129.09 16.618 1118.19 8.64922 1104.1C0.680472 1090.02 -3.3039 1073.39 -3.30391 1054.24C-3.30391 1040.23 -1.13061 1027.55 3.21598 1016.2C7.56256 1004.85 13.8812 995.155 22.1719 987.106C30.3822 979.057 40.3632 972.859 52.1151 968.512C63.867 964.165 77.108 961.992 91.8381 961.992L107.293 961.992L107.293 1127.65L70.5881 1127.65L70.5881 1023.33C65.2756 1023.41 60.6071 1024.78 56.5825 1027.43C52.4773 1030.01 49.2979 1033.51 47.0441 1037.94C44.7098 1042.28 43.5427 1047.23 43.5427 1052.79C43.5427 1058.18 44.7098 1063.13 47.0441 1067.64C49.2979 1072.15 52.4371 1075.77 56.4617 1078.5C60.4863 1081.16 65.1951 1082.57 70.5881 1082.73L110.19 1082.73C116.147 1082.73 121.459 1081.48 126.128 1078.99C130.796 1076.49 134.459 1072.91 137.115 1068.24C139.771 1063.57 141.1 1057.94 141.1 1051.34C141.1 1046.75 140.456 1042.57 139.168 1038.78C137.88 1034.92 136.028 1031.62 133.614 1028.88C131.118 1026.14 128.14 1024.13 124.679 1022.84L124.679 961.992C137.558 964.085 148.746 969.035 158.244 976.843C167.662 984.651 174.987 994.994 180.219 1007.87C185.37 1020.67 187.946 1035.64 187.946 1052.79ZM184.565 951.796L-0.889146 951.796L-0.88915 887.08L34.3665 887.08L34.3665 885.148C21.3268 881.767 11.7884 876.415 5.75147 869.09C-0.285453 861.685 -3.30392 853.032 -3.30392 843.131C-3.30392 840.233 -3.06244 837.376 -2.57948 834.559C-2.17702 831.661 -1.57333 828.884 -0.768411 826.228L56.0995 826.228C54.9726 829.528 54.1274 833.593 53.564 838.422C53.0005 843.252 52.7188 847.397 52.7188 850.858C52.7188 857.378 54.2079 863.254 57.1861 868.486C60.0839 873.638 64.189 877.703 69.5015 880.681C74.7335 883.659 80.8912 885.148 87.9745 885.148L184.565 885.148L184.565 951.796ZM-0.889165 628.826L184.565 691.127L184.565 768.4L-0.889153 830.701L-0.889157 760.673L121.781 730.729L121.781 728.798L-0.889161 698.854L-0.889165 628.826ZM184.565 626.87L-0.889165 626.87L-0.889169 560.222L184.565 560.222L184.565 626.87ZM-20.2074 593.546C-20.2074 602.561 -23.1856 610.289 -29.142 616.728C-35.0984 623.167 -42.2623 626.387 -50.6335 626.387C-59.0047 626.387 -66.1685 623.167 -72.125 616.728C-78.0814 610.289 -81.0596 602.561 -81.0596 593.546C-81.0596 584.451 -78.0814 576.723 -72.125 570.364C-66.1685 563.925 -59.0047 560.705 -50.6335 560.705C-42.2623 560.705 -35.0984 563.925 -29.142 570.364C-23.1856 576.723 -20.2074 584.451 -20.2074 593.546ZM187.946 453.918C187.946 474.041 183.962 491.266 175.993 505.594C167.944 519.922 156.755 530.909 142.428 538.556C128.019 546.203 111.317 550.026 92.3211 550.026C73.3248 550.026 56.6629 546.203 42.3353 538.556C27.9271 530.909 16.7387 519.922 8.76991 505.594C0.720677 491.266 -3.30394 474.041 -3.30394 453.918C-3.30394 435.727 -0.00375372 419.99 6.59662 406.709C13.1165 393.347 22.3731 383.004 34.3665 375.679C46.2794 368.355 60.2851 364.652 76.3836 364.571L76.3836 426.39C66.644 427.275 59.2387 430.092 54.1676 434.841C49.0161 439.51 46.4404 445.547 46.4404 452.952C46.4404 458.748 48.1307 463.819 51.5114 468.165C54.8116 472.512 59.8424 475.892 66.6037 478.307C73.2846 480.722 81.6961 481.929 91.8381 481.929C101.98 481.929 110.432 480.722 117.193 478.307C123.874 475.892 128.905 472.512 132.286 468.165C135.586 463.819 137.236 458.748 137.236 452.952C137.236 448.042 136.109 443.695 133.855 439.912C131.521 436.129 128.14 433.07 123.713 430.736C119.206 428.321 113.732 426.873 107.293 426.39L107.293 364.571C123.633 364.813 137.88 368.556 150.034 375.8C162.108 383.044 171.445 393.307 178.045 406.588C184.646 419.789 187.946 435.566 187.946 453.918ZM187.946 265.21C187.946 285.011 184.163 302.075 176.597 316.403C168.95 330.65 158.003 341.637 143.756 349.364C129.428 357.011 112.283 360.835 92.3211 360.835C73.1639 360.835 56.4214 356.971 42.0938 349.244C27.7661 341.516 16.6179 330.61 8.64918 316.523C0.680426 302.437 -3.30395 285.816 -3.30395 266.658C-3.30395 252.653 -1.13066 239.975 3.21593 228.626C7.56252 217.276 13.8812 207.577 22.1719 199.528C30.3821 191.478 40.3632 185.281 52.1151 180.934C63.867 176.587 77.108 174.414 91.8381 174.414L107.293 174.414L107.293 340.067L70.5881 340.067L70.5881 235.749C65.2756 235.83 60.607 237.198 56.5824 239.854C52.4773 242.43 49.2978 245.932 47.0441 250.359C44.7098 254.705 43.5426 259.656 43.5426 265.21C43.5426 270.603 44.7098 275.553 47.0441 280.06C49.2978 284.568 52.437 288.19 56.4617 290.927C60.4863 293.583 65.1951 294.992 70.5881 295.153L110.19 295.153C116.147 295.153 121.459 293.905 126.128 291.41C130.796 288.915 134.459 285.333 137.115 280.664C139.771 275.995 141.099 270.361 141.099 263.761C141.099 259.173 140.456 254.987 139.168 251.204C137.88 247.34 136.028 244.04 133.614 241.303C131.118 238.567 128.14 236.554 124.679 235.266L124.679 174.414C137.558 176.507 148.746 181.457 158.244 189.265C167.662 197.073 174.987 207.416 180.219 220.295C185.37 233.093 187.946 248.065 187.946 265.21ZM59.4801 -5.29938L59.4801 56.0359C55.697 56.3578 52.437 57.686 49.7003 60.0202C46.9635 62.3545 44.8707 65.373 43.4219 69.0756C41.8925 72.6978 41.1279 76.7224 41.1279 81.1495C41.1279 86.8645 42.1743 91.7745 44.2671 95.8796C46.3599 99.9847 49.3381 101.997 53.2017 101.917C55.9385 101.997 58.474 100.83 60.8082 98.4151C63.1425 95.9199 64.9536 91.1306 66.2415 84.0472L73.0029 46.3768C76.464 27.3805 82.2997 13.2541 90.5099 3.99749C98.6397 -5.33962 109.546 -10.0484 123.23 -10.1289C136.431 -10.0484 147.901 -6.10429 157.641 1.70347C167.3 9.43074 174.786 20.0155 180.098 33.4577C185.33 46.8195 187.946 62.0728 187.946 79.2177C187.946 107.551 182.151 129.727 170.56 145.745C158.969 161.682 143.675 170.577 124.679 172.428L124.679 106.263C130.555 105.378 135.103 102.48 138.322 97.5699C141.462 92.5794 143.031 86.301 143.031 78.7347C143.031 72.6173 141.985 67.5865 139.892 63.6424C137.799 59.6178 134.821 57.5652 130.957 57.4847C127.416 57.5652 124.598 59.336 122.506 62.7972C120.413 66.1779 118.723 71.4904 117.435 78.7347L111.639 111.576C108.339 130.491 102.061 144.658 92.804 154.076C83.5474 163.493 71.6345 168.162 57.0654 168.081C44.1866 168.162 33.2798 164.781 24.3452 157.939C15.33 151.017 8.48817 141.157 3.81961 128.358C-0.929436 115.48 -3.30396 100.226 -3.30396 82.5984C-3.30396 55.7944 2.25001 34.6651 13.358 19.2106C24.4659 3.67554 39.84 -4.49445 59.4801 -5.29938Z" fill="#2F2F2F" fill-opacity="0.1"/>
</g>
</svg>
